<svg id="svg" version="1.1" xmlns="http://www.w3.org/2000/svg" xmlns:xlink="http://www.w3.org/1999/xlink" width="400" height="400" viewBox="0, 0, 400,400"><g id="svgg"><path id="path0" d="M0.000 200.000 L 0.000 400.000 200.000 400.000 L 400.000 400.000 400.000 200.000 L 400.000 0.000 200.000 0.000 L 0.000 0.000 0.000 200.000 M203.667 126.333 C 203.920 126.807,203.920 127.193,203.667 127.667 C 203.037 128.843,201.000 128.334,201.000 127.000 C 201.000 125.666,203.037 125.157,203.667 126.333 M203.715 131.048 C 204.096 133.731,207.937 138.667,209.643 138.667 C 210.752 138.667,214.786 136.384,215.904 135.125 C 216.927 133.972,218.183 133.721,217.846 134.737 C 217.768 134.973,217.236 136.742,216.664 138.667 C 216.093 140.592,215.472 142.656,215.285 143.254 L 214.946 144.341 202.437 144.254 L 189.929 144.167 188.476 139.333 C 187.677 136.675,187.018 134.387,187.011 134.250 C 186.980 133.575,188.271 134.131,189.076 135.140 C 189.989 136.284,194.222 138.667,195.341 138.667 C 196.962 138.667,201.333 132.824,201.333 130.657 C 201.333 128.497,203.401 128.836,203.715 131.048 M188.129 131.417 C 188.557 132.096,188.081 133.104,187.255 133.267 C 186.737 133.369,185.667 132.515,185.667 132.000 C 185.667 130.826,187.486 130.395,188.129 131.417 M218.600 131.067 C 219.157 131.623,219.099 132.503,218.472 133.023 C 217.433 133.886,216.131 132.214,217.013 131.151 C 217.502 130.562,218.066 130.532,218.600 131.067 M215.810 145.857 C 216.407 146.454,216.461 146.949,216.007 147.667 C 215.510 148.453,189.981 148.600,189.202 147.821 C 188.526 147.145,188.523 146.525,189.190 145.857 C 189.983 145.065,215.017 145.065,215.810 145.857 M208.753 151.574 C 217.337 155.613,220.132 166.915,214.340 174.167 C 211.614 177.581,211.709 177.980,215.335 178.312 C 218.302 178.584,219.058 179.483,217.814 181.259 L 217.296 182.000 202.505 182.000 C 186.274 182.000,186.667 182.049,186.667 180.017 C 186.667 178.714,187.168 178.430,189.749 178.273 C 193.115 178.067,193.311 177.455,190.902 174.682 C 180.724 162.972,194.653 144.940,208.753 151.574 M225.772 183.388 C 227.510 184.314,227.847 186.183,226.515 187.515 L 225.697 188.333 202.500 188.333 L 179.303 188.333 178.485 187.515 C 177.192 186.222,177.526 183.972,179.105 183.336 C 180.266 182.868,224.890 182.918,225.772 183.388 M218.061 190.500 C 218.562 191.601,217.963 193.000,216.991 193.000 C 211.246 193.000,210.849 205.722,215.998 224.785 C 220.235 240.471,227.334 253.333,231.754 253.333 C 233.430 253.333,234.413 255.454,233.267 256.600 C 232.687 257.180,172.313 257.180,171.733 256.600 C 170.522 255.389,171.417 253.555,173.394 253.199 C 184.958 251.117,199.242 195.375,188.778 193.160 C 187.278 192.843,186.841 192.496,186.726 191.530 C 186.498 189.617,186.073 189.667,202.548 189.667 L 217.681 189.667 218.061 190.500 M242.029 258.620 C 242.938 259.742,242.856 261.508,241.848 262.515 L 241.030 263.333 202.660 263.333 C 174.393 263.333,164.098 263.232,163.561 262.950 C 161.605 261.920,161.886 258.688,164.000 257.901 C 164.275 257.799,181.801 257.742,202.946 257.774 L 241.392 257.833 242.029 258.620 M242.785 264.694 C 248.990 266.417,249.555 275.070,243.667 278.211 C 242.274 278.954,166.243 279.375,162.795 278.659 C 155.651 277.176,155.056 267.261,161.962 264.793 C 163.550 264.226,240.757 264.131,242.785 264.694 M238.767 280.466 C 241.682 282.442,241.188 287.796,237.988 288.898 C 236.469 289.421,169.140 289.507,167.271 288.988 C 163.086 287.826,163.336 280.562,167.584 279.902 C 171.198 279.339,237.885 279.868,238.767 280.466 " stroke="none" fill="#040c1c" fill-rule="evenodd"></path><path id="path1" d="M201.843 126.118 C 201.160 126.618,201.266 127.614,202.055 128.112 C 202.458 128.365,202.756 128.341,203.139 128.023 C 204.350 127.018,203.108 125.193,201.843 126.118 M201.667 130.521 C 201.667 132.748,197.089 139.000,195.458 139.000 C 194.395 139.000,190.007 136.596,189.022 135.474 C 187.944 134.247,187.177 133.972,187.467 134.917 C 187.566 135.237,188.183 137.375,188.839 139.666 C 189.495 141.958,190.147 143.947,190.287 144.087 C 190.427 144.227,195.989 144.302,202.647 144.254 L 214.753 144.167 216.206 139.333 C 217.959 133.499,217.954 133.148,216.148 135.295 C 215.299 136.304,210.466 139.000,209.506 139.000 C 207.836 139.000,203.345 132.872,203.337 130.583 C 203.334 129.829,203.186 129.667,202.500 129.667 C 201.828 129.667,201.667 129.832,201.667 130.521 M186.384 131.290 C 185.640 131.769,186.068 132.833,187.005 132.833 C 187.665 132.833,187.833 132.665,187.833 132.005 C 187.833 131.129,187.154 130.794,186.384 131.290 M217.082 131.384 C 216.559 131.908,217.163 133.000,217.976 133.000 C 218.673 133.000,219.076 132.254,218.787 131.500 C 218.559 130.907,217.624 130.843,217.082 131.384 M189.417 145.887 C 188.675 146.187,188.923 147.635,189.750 147.836 C 191.831 148.343,215.425 147.837,215.778 147.278 C 216.750 145.736,216.155 145.665,202.543 145.693 C 195.552 145.707,189.646 145.795,189.417 145.887 M198.573 151.012 C 188.759 153.464,184.594 166.708,191.235 174.349 C 193.946 177.467,193.465 178.651,189.483 178.662 C 187.153 178.668,186.225 179.844,187.524 181.143 C 188.390 182.009,216.660 181.928,217.448 181.057 C 218.630 179.752,217.669 178.667,215.331 178.667 C 211.795 178.667,211.100 177.474,213.182 174.982 C 222.580 163.732,212.680 147.489,198.573 151.012 M178.358 184.212 C 177.978 184.695,177.667 185.349,177.667 185.667 C 177.667 185.984,177.978 186.639,178.358 187.122 L 179.048 188.000 202.473 188.000 C 228.742 188.000,227.111 188.158,227.111 185.610 C 227.111 183.220,228.343 183.333,202.321 183.333 L 179.048 183.333 178.358 184.212 M187.722 190.199 C 186.352 191.158,186.998 192.380,189.112 192.827 C 199.602 195.047,185.366 251.432,173.788 253.521 C 171.762 253.887,170.962 255.162,172.067 256.267 C 172.646 256.846,232.354 256.846,232.933 256.267 C 233.931 255.269,233.149 253.667,231.665 253.667 C 225.180 253.667,215.233 230.773,212.506 209.566 C 211.152 199.038,212.710 192.667,216.638 192.667 C 218.016 192.667,218.272 190.681,216.983 189.991 C 215.840 189.379,188.616 189.573,187.722 190.199 M163.545 258.691 C 162.444 259.557,162.341 261.341,163.333 262.333 C 164.404 263.404,240.093 263.380,241.455 262.309 C 242.092 261.808,242.333 261.311,242.333 260.500 C 242.333 259.689,242.092 259.192,241.455 258.691 C 240.068 257.599,164.932 257.599,163.545 258.691 M161.500 265.130 C 156.094 267.491,155.817 275.188,161.043 277.792 L 162.798 278.667 202.482 278.659 C 240.398 278.652,242.226 278.625,243.500 278.035 C 249.026 275.476,248.987 267.438,243.437 265.119 C 241.863 264.461,163.006 264.472,161.500 265.130 M167.024 280.581 C 163.636 282.318,163.636 286.689,167.024 288.416 C 168.616 289.228,235.905 289.327,237.837 288.520 C 240.842 287.265,241.197 282.672,238.434 280.799 C 237.028 279.847,168.862 279.638,167.024 280.581 " stroke="none" fill="#f9fafa" fill-rule="evenodd"></path><path id="path2" d="M197.812 137.083 L 196.833 138.167 197.917 137.188 C 198.512 136.649,199.000 136.162,199.000 136.104 C 199.000 135.847,198.725 136.074,197.812 137.083 M199.333 150.609 C 199.333 150.761,199.783 150.818,200.333 150.738 C 200.883 150.657,201.333 150.533,201.333 150.462 C 201.333 150.391,200.883 150.333,200.333 150.333 C 199.783 150.333,199.333 150.457,199.333 150.609 M204.083 150.563 C 204.404 150.647,204.929 150.647,205.250 150.563 C 205.571 150.479,205.308 150.411,204.667 150.411 C 204.025 150.411,203.762 150.479,204.083 150.563 M197.314 150.983 C 192.425 152.466,187.499 158.863,187.717 163.446 L 187.767 164.500 187.900 163.500 C 188.662 157.763,192.375 153.216,197.982 151.150 C 199.251 150.683,198.732 150.552,197.314 150.983 M206.333 151.000 C 206.608 151.178,207.013 151.325,207.232 151.328 C 207.869 151.336,211.752 153.695,212.682 154.639 C 218.256 160.293,218.371 170.258,212.920 175.336 C 211.225 176.916,212.453 178.652,215.272 178.662 C 217.773 178.670,218.795 179.844,217.400 181.107 C 216.905 181.554,215.806 181.668,211.150 181.750 L 205.500 181.851 211.398 181.925 C 217.156 181.998,217.308 181.982,217.814 181.259 C 219.058 179.483,218.302 178.584,215.335 178.312 C 211.709 177.980,211.614 177.581,214.340 174.167 C 220.000 167.080,217.456 155.942,209.238 151.831 C 207.074 150.748,205.046 150.168,206.333 151.000 M187.825 167.437 C 187.975 169.652,189.356 172.904,190.902 174.682 C 191.861 175.786,192.667 177.067,192.667 177.489 C 192.667 177.598,192.329 177.824,191.917 177.990 L 191.167 178.291 191.894 178.312 C 193.502 178.359,193.134 176.517,191.099 174.339 C 189.888 173.042,188.354 169.630,188.007 167.460 L 187.693 165.500 187.825 167.437 M187.067 178.733 C 186.500 179.300,186.571 180.856,187.190 181.476 C 187.639 181.925,188.747 181.989,194.940 181.924 L 202.167 181.847 195.026 181.750 C 187.562 181.649,187.000 181.538,187.000 180.167 C 187.000 179.108,187.600 178.729,189.508 178.581 L 191.167 178.453 189.317 178.393 C 188.244 178.359,187.299 178.501,187.067 178.733 M191.274 188.250 C 197.567 188.301,207.767 188.301,213.941 188.250 C 220.115 188.199,214.967 188.158,202.500 188.158 C 190.033 188.158,184.982 188.199,191.274 188.250 M213.226 195.182 C 212.919 195.828,212.670 196.538,212.674 196.761 C 212.678 196.984,212.981 196.507,213.347 195.700 C 214.139 193.953,214.032 193.492,213.226 195.182 M212.223 207.167 C 212.476 208.814,212.668 209.095,212.662 207.806 C 212.659 207.271,212.513 206.608,212.338 206.333 C 212.121 205.993,212.084 206.259,212.223 207.167 M189.039 224.723 C 189.017 225.029,188.914 225.554,188.808 225.889 C 188.626 226.468,188.636 226.469,188.997 225.906 C 189.207 225.580,189.310 225.055,189.228 224.740 C 189.092 224.223,189.074 224.222,189.039 224.723 M216.723 229.017 C 216.918 229.576,217.139 229.972,217.215 229.897 C 217.380 229.732,216.751 228.000,216.526 228.000 C 216.439 228.000,216.528 228.458,216.723 229.017 M177.000 251.167 C 176.190 251.992,175.603 252.667,175.695 252.667 C 175.786 252.667,176.524 251.992,177.333 251.167 C 178.143 250.342,178.730 249.667,178.639 249.667 C 178.547 249.667,177.810 250.342,177.000 251.167 M231.833 253.575 C 232.871 253.830,233.329 254.338,233.379 255.291 C 233.421 256.114,233.433 256.120,233.572 255.389 C 233.755 254.428,232.817 253.319,231.865 253.372 C 231.193 253.409,231.192 253.417,231.833 253.575 M187.250 256.917 C 195.546 256.966,209.121 256.966,217.417 256.917 C 225.713 256.867,218.925 256.826,202.333 256.826 C 185.742 256.826,178.954 256.867,187.250 256.917 " stroke="none" fill="#7b8c9b" fill-rule="evenodd"></path><path id="path3" d="M201.921 150.569 C 202.335 150.649,202.935 150.646,203.254 150.562 C 203.573 150.479,203.233 150.414,202.500 150.417 C 201.767 150.421,201.506 150.489,201.921 150.569 M212.077 200.667 C 212.077 201.308,212.146 201.571,212.230 201.250 C 212.314 200.929,212.314 200.404,212.230 200.083 C 212.146 199.762,212.077 200.025,212.077 200.667 " stroke="none" fill="#6f8295" fill-rule="evenodd"></path><path id="path4" d="M202.923 181.908 C 203.522 181.982,204.422 181.981,204.923 181.905 C 205.424 181.829,204.933 181.768,203.833 181.770 C 202.733 181.772,202.324 181.834,202.923 181.908 " stroke="none" fill="#848c95" fill-rule="evenodd"></path><path id="path5" d="" stroke="none" fill="#6a7986" fill-rule="evenodd"></path><path id="path6" d="M182.891 264.583 C 193.556 264.632,211.106 264.632,221.891 264.583 C 232.676 264.534,223.950 264.495,202.500 264.495 C 181.050 264.495,172.226 264.534,182.891 264.583 " stroke="none" fill="#2b4d67" fill-rule="evenodd"></path><path id="path7" d="M196.272 145.583 C 199.813 145.637,205.513 145.637,208.939 145.583 C 212.364 145.529,209.467 145.484,202.500 145.485 C 195.533 145.485,192.731 145.529,196.272 145.583 M196.272 148.250 C 199.813 148.304,205.513 148.304,208.939 148.249 C 212.364 148.195,209.467 148.151,202.500 148.151 C 195.533 148.151,192.731 148.196,196.272 148.250 M183.609 257.917 C 194.119 257.965,211.219 257.965,221.609 257.917 C 231.999 257.868,223.400 257.828,202.500 257.828 C 181.600 257.828,173.099 257.868,183.609 257.917 M183.276 263.250 C 193.969 263.299,211.369 263.299,221.942 263.250 C 232.516 263.201,223.767 263.161,202.500 263.161 C 181.233 263.161,172.582 263.201,183.276 263.250 M185.442 279.917 C 194.944 279.966,210.394 279.966,219.775 279.917 C 229.157 279.867,221.383 279.827,202.500 279.827 C 183.617 279.827,175.941 279.867,185.442 279.917 M237.833 280.314 C 238.200 280.464,238.935 281.017,239.466 281.543 C 240.193 282.263,240.340 282.326,240.063 281.797 C 239.645 281.001,238.239 279.989,237.595 280.021 C 237.359 280.033,237.467 280.165,237.833 280.314 M165.024 281.545 C 164.644 282.028,164.338 282.591,164.343 282.795 C 164.349 282.999,164.520 282.867,164.723 282.500 C 164.927 282.133,165.321 281.571,165.598 281.250 C 165.876 280.929,166.016 280.667,165.909 280.667 C 165.802 280.667,165.404 281.062,165.024 281.545 M164.347 286.283 C 164.330 286.862,166.459 289.000,167.050 288.999 C 167.297 288.998,167.021 288.706,166.436 288.349 C 165.851 287.992,165.144 287.280,164.866 286.767 C 164.588 286.253,164.354 286.036,164.347 286.283 M239.741 287.189 C 239.580 287.476,239.010 288.000,238.474 288.353 C 237.938 288.707,237.654 288.997,237.842 288.998 C 238.378 289.001,239.625 288.033,240.009 287.316 C 240.420 286.548,240.167 286.428,239.741 287.189 M185.275 289.250 C 194.869 289.299,210.469 289.299,219.942 289.250 C 229.416 289.201,221.567 289.161,202.500 289.161 C 183.433 289.161,175.682 289.201,185.275 289.250 " stroke="none" fill="#183c5c" fill-rule="evenodd"></path><path id="path8" d="M191.108 183.250 C 197.492 183.301,207.842 183.301,214.108 183.250 C 220.373 183.199,215.150 183.158,202.500 183.158 C 189.850 183.158,184.723 183.199,191.108 183.250 M182.891 278.917 C 193.556 278.965,211.106 278.965,221.891 278.917 C 232.676 278.868,223.950 278.828,202.500 278.828 C 181.050 278.828,172.226 278.868,182.891 278.917 " stroke="none" fill="#243c54" fill-rule="evenodd"></path></g></svg>