<svg id="svg" version="1.1" xmlns="http://www.w3.org/2000/svg" xmlns:xlink="http://www.w3.org/1999/xlink" width="400" height="400" viewBox="0, 0, 400,400"><g id="svgg"><path id="path0" d="M201.436 126.545 C 201.161 127.264,201.753 128.167,202.500 128.167 C 202.827 128.167,203.247 127.925,203.433 127.629 C 203.943 126.821,203.472 126.000,202.500 126.000 C 202.017 126.000,201.555 126.237,201.436 126.545 M201.663 130.583 C 201.655 132.864,197.166 139.000,195.505 139.000 C 194.377 139.000,190.122 136.731,188.926 135.491 C 187.227 133.730,187.222 133.853,188.766 139.254 L 190.126 144.008 202.456 143.921 L 214.786 143.833 215.026 143.000 C 215.158 142.542,215.787 140.404,216.423 138.250 C 217.656 134.075,217.582 133.647,215.949 135.507 C 214.956 136.638,210.646 139.000,209.575 139.000 C 207.967 139.000,204.044 134.128,203.313 131.223 C 202.851 129.391,201.669 128.932,201.663 130.583 M185.463 131.475 C 185.160 132.266,185.589 133.064,186.249 132.937 C 186.618 132.866,186.833 132.520,186.833 132.000 C 186.833 131.050,185.781 130.647,185.463 131.475 M217.130 131.475 C 216.827 132.266,217.256 133.064,217.916 132.937 C 218.285 132.866,218.500 132.520,218.500 132.000 C 218.500 131.050,217.448 130.647,217.130 131.475 M189.113 146.519 C 188.696 147.607,189.550 147.674,202.687 147.587 C 215.582 147.502,215.833 147.487,215.833 146.833 C 215.833 145.906,189.468 145.595,189.113 146.519 M198.331 151.123 C 188.364 153.997,184.683 166.567,191.451 174.618 C 193.821 177.436,193.491 178.398,190.082 178.606 C 187.675 178.753,187.000 179.062,187.000 180.017 C 187.000 181.665,187.019 181.667,202.505 181.667 L 216.962 181.667 217.481 180.926 C 218.464 179.523,217.650 178.667,215.331 178.667 C 211.795 178.667,211.100 177.474,213.182 174.982 C 222.656 163.642,212.348 147.081,198.331 151.123 M178.358 184.212 C 177.978 184.695,177.667 185.349,177.667 185.667 C 177.667 185.984,177.978 186.639,178.358 187.122 L 179.048 188.000 202.473 188.000 C 228.749 188.000,227.000 188.173,227.000 185.576 C 227.000 183.220,228.246 183.333,202.283 183.333 L 179.048 183.333 178.358 184.212 M187.347 190.484 C 186.504 191.499,187.200 192.422,189.112 192.827 C 199.668 195.061,185.382 251.434,173.727 253.533 C 171.761 253.887,170.977 255.177,172.067 256.267 C 172.646 256.846,232.354 256.846,232.933 256.267 C 233.951 255.249,233.030 253.667,231.421 253.667 C 227.000 253.667,219.902 240.805,215.665 225.119 C 210.483 205.935,210.881 192.667,216.638 192.667 C 217.555 192.667,218.134 191.540,217.667 190.667 C 217.191 189.778,188.078 189.603,187.347 190.484 M164.333 258.234 C 162.576 258.888,162.072 261.087,163.396 262.320 C 164.557 263.402,240.079 263.391,241.455 262.309 C 242.516 261.475,242.615 260.089,241.696 258.954 L 241.059 258.167 202.946 258.107 C 181.984 258.075,164.608 258.132,164.333 258.234 M160.977 265.438 C 155.834 268.153,156.140 275.611,161.493 278.043 C 163.082 278.765,240.209 279.021,242.759 278.313 C 248.176 276.809,249.316 269.056,244.601 265.788 L 243.224 264.833 202.838 264.746 L 162.453 264.659 160.977 265.438 M167.444 280.363 C 163.789 281.432,163.630 287.044,167.212 288.540 C 168.716 289.169,235.834 289.192,237.655 288.565 C 240.794 287.483,241.272 282.723,238.434 280.799 C 237.389 280.092,169.794 279.676,167.444 280.363 " stroke="none" fill="#fbfbfb" fill-rule="evenodd"></path><path id="path1" d="M201.222 125.889 C 200.381 126.730,201.291 128.667,202.526 128.667 C 204.043 128.667,204.636 125.958,203.167 125.741 C 202.557 125.651,202.550 125.673,203.083 126.004 C 203.797 126.447,203.841 127.441,203.171 127.996 C 202.136 128.856,200.877 127.473,201.617 126.289 C 201.985 125.700,201.700 125.411,201.222 125.889 M201.330 130.250 C 201.323 132.309,198.753 136.277,196.293 138.029 L 195.355 138.697 192.911 137.568 C 191.568 136.947,189.935 135.890,189.284 135.219 C 188.017 133.915,186.983 133.624,187.026 134.583 C 187.042 134.932,187.120 134.999,187.221 134.750 C 187.481 134.106,187.788 134.235,189.209 135.583 C 190.479 136.789,194.510 139.000,195.437 139.000 C 196.970 139.000,201.136 133.471,201.557 130.879 C 201.711 129.930,201.917 129.677,202.624 129.568 C 203.390 129.450,203.364 129.427,202.417 129.383 C 201.446 129.339,201.333 129.428,201.330 130.250 M203.501 131.330 C 203.864 133.662,208.038 139.000,209.497 139.000 C 210.401 139.000,215.333 136.263,216.124 135.323 C 217.044 134.230,217.813 134.008,217.531 134.917 C 217.431 135.237,216.814 137.300,216.160 139.500 C 215.505 141.700,214.903 143.695,214.822 143.934 C 214.741 144.173,214.805 144.287,214.964 144.189 C 215.123 144.090,215.329 143.670,215.421 143.255 C 215.513 142.840,216.131 140.670,216.794 138.432 C 218.302 133.347,217.986 132.474,215.616 135.174 C 214.169 136.821,209.849 138.883,209.070 138.298 C 206.513 136.376,204.570 133.885,203.768 131.500 C 203.326 130.185,203.322 130.183,203.501 131.330 M185.417 130.887 C 185.188 130.980,185.000 131.211,185.000 131.402 C 185.000 131.618,185.180 131.599,185.479 131.351 C 185.742 131.132,186.418 131.026,186.981 131.115 C 187.554 131.205,187.921 131.142,187.816 130.971 C 187.618 130.652,186.130 130.600,185.417 130.887 M217.083 130.887 C 216.854 130.980,216.667 131.211,216.667 131.402 C 216.667 131.612,216.863 131.585,217.165 131.335 C 217.439 131.107,217.964 131.000,218.332 131.096 C 218.700 131.192,218.917 131.135,218.814 130.969 C 218.616 130.648,217.775 130.608,217.083 130.887 M185.069 132.667 C 185.257 133.280,187.075 133.344,187.197 132.742 C 187.245 132.508,187.207 132.470,187.114 132.658 C 186.880 133.129,185.892 133.087,185.358 132.583 C 185.002 132.247,184.946 132.263,185.069 132.667 M216.736 132.667 C 216.923 133.280,218.742 133.344,218.864 132.742 C 218.911 132.508,218.874 132.470,218.781 132.658 C 218.547 133.129,217.559 133.087,217.025 132.583 C 216.669 132.247,216.613 132.263,216.736 132.667 M187.333 135.526 C 187.333 136.095,189.441 143.003,189.574 142.870 C 189.647 142.797,189.234 141.109,188.655 139.119 C 187.666 135.716,187.333 134.812,187.333 135.526 M201.083 150.576 C 201.771 150.648,202.896 150.648,203.583 150.576 C 204.271 150.504,203.708 150.445,202.333 150.445 C 200.958 150.445,200.396 150.504,201.083 150.576 M212.991 155.167 C 213.983 156.267,214.861 157.242,214.942 157.333 C 215.024 157.425,214.932 157.200,214.737 156.833 C 214.543 156.467,213.665 155.492,212.786 154.667 L 211.188 153.167 212.991 155.167 M187.773 165.000 C 187.773 166.192,187.834 166.679,187.908 166.083 C 187.982 165.487,187.982 164.512,187.908 163.917 C 187.834 163.321,187.773 163.808,187.773 165.000 M217.095 165.167 C 217.098 166.083,217.163 166.419,217.239 165.912 C 217.316 165.405,217.314 164.655,217.235 164.245 C 217.156 163.835,217.093 164.250,217.095 165.167 M212.863 175.359 C 212.388 175.923,212.005 176.560,212.010 176.776 C 212.016 176.991,212.186 176.867,212.389 176.500 C 212.592 176.133,213.063 175.496,213.437 175.083 C 213.811 174.671,214.028 174.333,213.921 174.333 C 213.814 174.333,213.338 174.795,212.863 175.359 M188.923 178.575 C 189.522 178.649,190.422 178.648,190.923 178.572 C 191.424 178.495,190.933 178.435,189.833 178.437 C 188.733 178.438,188.324 178.501,188.923 178.575 M214.256 178.575 C 214.855 178.649,215.755 178.648,216.256 178.572 C 216.757 178.495,216.267 178.435,215.167 178.437 C 214.067 178.438,213.657 178.501,214.256 178.575 M178.024 183.878 C 177.644 184.361,177.333 185.166,177.333 185.667 C 177.333 186.167,177.644 186.972,178.024 187.455 L 178.715 188.333 190.941 188.254 L 203.167 188.175 191.104 188.083 L 179.042 187.992 178.354 187.118 C 177.486 186.014,177.487 185.319,178.358 184.212 L 179.048 183.333 202.473 183.333 C 227.857 183.333,226.449 183.238,227.097 185.000 C 227.220 185.334,227.289 185.258,227.307 184.769 C 227.372 182.968,227.831 183.000,202.283 183.000 L 178.715 183.000 178.024 183.878 M227.039 186.365 C 226.928 187.893,226.348 187.984,216.146 188.083 L 206.500 188.177 216.365 188.255 C 227.039 188.340,227.697 188.230,227.235 186.441 C 227.114 185.974,227.068 185.957,227.039 186.365 M187.017 190.147 C 186.030 191.336,186.859 192.754,188.778 193.160 C 199.242 195.375,184.958 251.117,173.394 253.199 C 171.417 253.555,170.522 255.389,171.733 256.600 C 172.313 257.180,232.687 257.180,233.267 256.600 C 234.413 255.454,233.430 253.333,231.754 253.333 C 227.334 253.333,220.235 240.471,215.998 224.785 C 210.849 205.722,211.246 193.000,216.991 193.000 C 217.963 193.000,218.562 191.601,218.061 190.500 C 217.852 190.042,217.436 189.667,217.137 189.667 C 216.715 189.667,216.767 189.808,217.368 190.294 C 218.321 191.066,217.842 192.667,216.657 192.667 C 204.804 192.667,218.918 251.178,231.342 253.540 C 233.247 253.902,234.003 255.197,232.933 256.267 C 232.354 256.846,172.646 256.846,172.067 256.267 C 170.962 255.162,171.762 253.887,173.788 253.521 C 185.349 251.436,199.586 195.044,189.112 192.827 C 186.998 192.380,186.352 191.158,187.722 190.199 C 188.284 189.805,188.343 189.667,187.948 189.667 C 187.655 189.667,187.236 189.883,187.017 190.147 M164.000 257.901 C 163.072 258.246,162.333 259.099,162.354 259.802 C 162.376 260.499,162.376 260.499,162.664 259.786 C 163.427 257.896,161.095 258.000,202.529 258.000 C 245.537 258.000,242.333 257.798,242.333 260.511 C 242.333 263.216,245.795 263.000,202.511 263.000 C 160.899 263.000,162.923 263.089,162.568 261.247 L 162.424 260.500 162.379 261.237 C 162.354 261.642,162.662 262.280,163.063 262.654 C 164.224 263.736,240.413 263.725,241.788 262.642 C 242.881 261.783,242.999 259.818,242.029 258.620 L 241.392 257.833 202.946 257.774 C 181.801 257.742,164.275 257.799,164.000 257.901 M160.643 265.105 C 158.742 266.109,157.325 268.108,157.153 270.028 C 157.033 271.379,157.044 271.404,157.285 270.333 C 157.849 267.827,159.242 266.089,161.411 265.183 C 162.502 264.727,167.291 264.667,202.604 264.667 L 242.562 264.667 243.981 265.417 C 249.060 268.103,248.774 275.650,243.503 278.045 C 242.235 278.621,240.151 278.652,202.500 278.656 L 162.833 278.660 161.134 277.869 C 159.196 276.967,158.050 275.560,157.455 273.354 C 157.112 272.083,157.041 271.994,157.022 272.811 C 156.971 275.059,159.065 277.633,161.772 278.648 C 163.075 279.137,241.332 279.135,243.092 278.647 C 248.587 277.121,249.750 268.792,244.934 265.454 L 243.557 264.500 202.838 264.413 L 162.120 264.326 160.643 265.105 M167.111 280.029 C 165.859 280.395,164.333 282.088,164.334 283.109 C 164.334 283.693,164.447 283.612,164.917 282.690 C 166.318 279.943,162.986 280.178,202.024 280.079 C 240.225 279.982,238.328 279.882,239.658 282.063 C 241.216 284.618,240.093 287.894,237.392 288.676 C 236.550 288.920,225.400 289.000,201.774 288.932 C 163.022 288.821,166.317 289.055,164.917 286.310 C 164.462 285.416,164.334 285.320,164.334 285.872 C 164.333 286.862,165.577 288.330,166.879 288.874 C 168.383 289.502,236.167 289.525,237.988 288.898 C 241.188 287.796,241.682 282.442,238.767 280.466 C 237.722 279.758,169.461 279.342,167.111 280.029 " stroke="none" fill="#93a0ad" fill-rule="evenodd"></path><path id="path2" d="M202.500 144.000 L 190.167 144.179 202.397 144.256 C 210.275 144.306,214.701 144.215,214.833 144.000 C 214.947 143.817,214.993 143.701,214.936 143.744 C 214.880 143.786,209.283 143.902,202.500 144.000 M195.895 145.916 C 199.412 145.970,205.262 145.970,208.895 145.916 C 212.528 145.862,209.650 145.818,202.500 145.818 C 195.350 145.818,192.378 145.862,195.895 145.916 M195.895 147.916 C 199.412 147.970,205.262 147.970,208.895 147.916 C 212.528 147.862,209.650 147.818,202.500 147.818 C 195.350 147.818,192.378 147.862,195.895 147.916 M195.439 189.916 C 199.439 189.970,205.889 189.970,209.773 189.916 C 213.656 189.863,210.383 189.819,202.500 189.819 C 194.617 189.820,191.439 189.863,195.439 189.916 " stroke="none" fill="#bccfdb" fill-rule="evenodd"></path><path id="path3" d="M195.432 151.809 C 192.467 153.505,188.657 157.624,188.670 159.121 C 188.672 159.330,189.109 158.740,189.642 157.810 C 190.978 155.481,193.403 153.184,195.778 151.997 C 196.875 151.449,197.562 151.002,197.303 151.004 C 197.045 151.006,196.203 151.369,195.432 151.809 M210.500 152.554 C 212.344 154.375,214.675 156.310,213.500 155.046 C 212.767 154.257,211.717 153.299,211.167 152.918 C 210.617 152.537,210.317 152.373,210.500 152.554 M215.842 171.306 C 215.722 171.686,215.397 172.222,215.121 172.498 C 214.845 172.774,214.776 173.000,214.968 173.000 C 215.359 173.000,216.472 171.027,216.222 170.777 C 216.133 170.689,215.962 170.927,215.842 171.306 M189.643 172.868 C 189.823 173.254,190.465 174.173,191.069 174.910 C 191.673 175.647,192.357 176.532,192.590 176.875 C 192.947 177.401,192.952 177.368,192.625 176.667 C 192.411 176.208,191.845 175.380,191.368 174.825 C 190.891 174.271,190.233 173.446,189.907 172.992 C 189.470 172.384,189.401 172.352,189.643 172.868 M213.652 174.750 C 213.033 175.529,212.790 175.955,213.112 175.696 C 213.719 175.209,215.147 173.333,214.912 173.333 C 214.838 173.333,214.272 173.971,213.652 174.750 M187.067 178.733 C 186.500 179.300,186.571 180.856,187.190 181.476 C 188.035 182.321,217.052 182.265,217.693 181.417 C 218.069 180.920,218.065 180.896,217.667 181.250 C 217.005 181.840,187.990 181.856,187.400 181.267 C 186.800 180.667,186.913 179.084,187.583 178.693 C 187.904 178.506,188.009 178.349,187.817 178.343 C 187.624 178.338,187.287 178.513,187.067 178.733 M217.870 179.500 C 218.144 180.726,218.335 180.992,218.328 180.139 C 218.325 179.787,218.171 179.275,217.985 179.000 C 217.738 178.635,217.707 178.770,217.870 179.500 " stroke="none" fill="#acb4c0" fill-rule="evenodd"></path><path id="path4" d="M203.921 188.236 C 204.335 188.315,204.935 188.312,205.254 188.229 C 205.573 188.146,205.233 188.080,204.500 188.084 C 203.767 188.088,203.506 188.156,203.921 188.236 " stroke="none" fill="#b4bec4" fill-rule="evenodd"></path></g></svg>